<?xml version="1.0" encoding="UTF-8"?>
<svg version="1.1" viewBox="0 0 135.65 141.13" xml:space="preserve" xmlns="http://www.w3.org/2000/svg"><g transform="translate(-36.67 -77.561)"><g transform="matrix(.44188 .7477 -1.0668 .52361 246.9 -34.44)"><g transform="translate(-13.681 12.971)"><g transform="matrix(.9807 -.076897 -.13 1.1125 32.169 61.705)"><g transform="translate(15.027 -26.615)"><path d="m53.858 60.061a34.601 44.357 35.546 0 0-2.355-1.4532 22.846 50.746 35.2 0 1-15.279 43.228l0.01642 0.0103a34.601 44.357 35.546 0 1 29.87-20.688 34.601 44.357 35.546 0 0-12.252-21.097zm-26.939 76.792a34.601 44.357 35.546 0 0 0.869-0.18349 34.601 44.357 35.546 0 0 1.7131-0.44349 34.601 44.357 35.546 0 0 1.7107-0.52336 34.601 44.357 35.546 0 0 1.705-0.60223 34.601 44.357 35.546 0 0 1.6959-0.68121 34.601 44.357 35.546 0 0 1.6835-0.75691 34.601 44.357 35.546 0 0 1.6672-0.83306 34.601 44.357 35.546 0 0 1.6476-0.90595 34.601 44.357 35.546 0 0 1.6247-0.97779 34.601 44.357 35.546 0 0 1.5996-1.0478 34.601 44.357 35.546 0 0 1.5695-1.1146 34.601 44.357 35.546 0 0 1.5374-1.1806 34.601 44.357 35.546 0 0 1.5019-1.2432 34.601 44.357 35.546 0 0 1.4643-1.3041 34.601 44.357 35.546 0 0 1.4217-1.3617 34.601 44.357 35.546 0 0 1.3776-1.417 34.601 44.357 35.546 0 0 1.3308-1.4686 34.601 44.357 35.546 0 0 1.2807-1.518 34.601 44.357 35.546 0 0 1.2291-1.5652 34.601 44.357 35.546 0 0 1.1737-1.6071 34.601 44.357 35.546 0 0 1.1162-1.6472 34.601 44.357 35.546 0 0 1.0577-1.6846 34.601 44.357 35.546 0 0 0.99552-1.7168 34.601 44.357 35.546 0 0 0.93176-1.7467 34.601 44.357 35.546 0 0 0.867-1.7728 34.601 44.357 35.546 0 0 0.79966-1.7951 34.601 44.357 35.546 0 0 0.73072-1.8152 34.601 44.357 35.546 0 0 0.66037-1.8296 34.601 44.357 35.546 0 0 0.58904-1.8413 34.601 44.357 35.546 0 0 0.51555-1.8489 34.601 44.357 35.546 0 0 0.44235-1.8541 34.601 44.357 35.546 0 0 0.36768-1.8536 34.601 44.357 35.546 0 0 0.292-1.8505 34.601 44.357 35.546 0 0 0.21651-1.8439 34.601 44.357 35.546 0 0 0.13895-1.8331 34.601 44.357 35.546 0 0 0.06333-1.8187 34.601 44.357 35.546 0 0-0.01448-1.8002 34.601 44.357 35.546 0 0-0.09085-1.7787 34.601 44.357 35.546 0 0-0.16714-1.7535 34.601 44.357 35.546 0 0-0.12393-0.87532 34.601 44.357 35.546 0 0-29.87 20.688 34.601 44.357 35.546 0 0-9.3206 35.007zm29.803-20.735a34.601 44.357 35.546 0 1-1.1737 1.6071 34.601 44.357 35.546 0 1-1.2291 1.5652 34.601 44.357 35.546 0 1-1.2807 1.518 34.601 44.357 35.546 0 1-1.3308 1.4686 34.601 44.357 35.546 0 1-1.3776 1.4171 34.601 44.357 35.546 0 1-1.4217 1.3617 34.601 44.357 35.546 0 1-1.4643 1.3041 34.601 44.357 35.546 0 1-1.5019 1.2433 34.601 44.357 35.546 0 1-1.5373 1.1806 34.601 44.357 35.546 0 1-1.5696 1.1146 34.601 44.357 35.546 0 1-1.5996 1.0478 34.601 44.357 35.546 0 1-1.6247 0.97779 34.601 44.357 35.546 0 1-1.6476 0.90593 34.601 44.357 35.546 0 1-1.6672 0.83309 34.601 44.357 35.546 0 1-1.6835 0.75687 34.601 44.357 35.546 0 1-1.6959 0.68124 34.601 44.357 35.546 0 1-1.705 0.60223 34.601 44.357 35.546 0 1-1.7107 0.52336 34.601 44.357 35.546 0 1-1.7131 0.44347 34.601 44.357 35.546 0 1-0.86899 0.18347 34.601 44.357 35.546 0 0 12.184 21.05 34.601 44.357 35.546 0 0 1.2386 0.70432 22.846 50.746 35.2 0 1 15.906-41.822 22.846 50.746 35.2 0 1 0.48996-0.65651z" stroke="#000" stroke-linecap="square" stroke-width="3"/><path d="m53.858 60.061a34.601 44.357 35.546 0 0-2.355-1.4532 22.846 50.746 35.2 0 1-15.279 43.228l0.01642 0.0103a34.601 44.357 35.546 0 1 29.87-20.688 34.601 44.357 35.546 0 0-12.252-21.097zm-26.939 76.792a34.601 44.357 35.546 0 0 0.869-0.18349 34.601 44.357 35.546 0 0 1.7131-0.44349 34.601 44.357 35.546 0 0 1.7107-0.52336 34.601 44.357 35.546 0 0 1.705-0.60223 34.601 44.357 35.546 0 0 1.6959-0.68121 34.601 44.357 35.546 0 0 1.6835-0.75691 34.601 44.357 35.546 0 0 1.6672-0.83306 34.601 44.357 35.546 0 0 1.6476-0.90595 34.601 44.357 35.546 0 0 1.6247-0.97779 34.601 44.357 35.546 0 0 1.5996-1.0478 34.601 44.357 35.546 0 0 1.5695-1.1146 34.601 44.357 35.546 0 0 1.5374-1.1806 34.601 44.357 35.546 0 0 1.5019-1.2432 34.601 44.357 35.546 0 0 1.4643-1.3041 34.601 44.357 35.546 0 0 1.4217-1.3617 34.601 44.357 35.546 0 0 1.3776-1.417 34.601 44.357 35.546 0 0 1.3308-1.4686 34.601 44.357 35.546 0 0 1.2807-1.518 34.601 44.357 35.546 0 0 1.2291-1.5652 34.601 44.357 35.546 0 0 1.1737-1.6071 34.601 44.357 35.546 0 0 1.1162-1.6472 34.601 44.357 35.546 0 0 1.0577-1.6846 34.601 44.357 35.546 0 0 0.99552-1.7168 34.601 44.357 35.546 0 0 0.93176-1.7467 34.601 44.357 35.546 0 0 0.867-1.7728 34.601 44.357 35.546 0 0 0.79966-1.7951 34.601 44.357 35.546 0 0 0.73072-1.8152 34.601 44.357 35.546 0 0 0.66037-1.8296 34.601 44.357 35.546 0 0 0.58904-1.8413 34.601 44.357 35.546 0 0 0.51555-1.8489 34.601 44.357 35.546 0 0 0.44235-1.8541 34.601 44.357 35.546 0 0 0.36768-1.8536 34.601 44.357 35.546 0 0 0.292-1.8505 34.601 44.357 35.546 0 0 0.21651-1.8439 34.601 44.357 35.546 0 0 0.13895-1.8331 34.601 44.357 35.546 0 0 0.06333-1.8187 34.601 44.357 35.546 0 0-0.01448-1.8002 34.601 44.357 35.546 0 0-0.09085-1.7787 34.601 44.357 35.546 0 0-0.16714-1.7535 34.601 44.357 35.546 0 0-0.12393-0.87532 34.601 44.357 35.546 0 0-29.87 20.688 34.601 44.357 35.546 0 0-9.3206 35.007zm29.803-20.735a34.601 44.357 35.546 0 1-1.1737 1.6071 34.601 44.357 35.546 0 1-1.2291 1.5652 34.601 44.357 35.546 0 1-1.2807 1.518 34.601 44.357 35.546 0 1-1.3308 1.4686 34.601 44.357 35.546 0 1-1.3776 1.4171 34.601 44.357 35.546 0 1-1.4217 1.3617 34.601 44.357 35.546 0 1-1.4643 1.3041 34.601 44.357 35.546 0 1-1.5019 1.2433 34.601 44.357 35.546 0 1-1.5373 1.1806 34.601 44.357 35.546 0 1-1.5696 1.1146 34.601 44.357 35.546 0 1-1.5996 1.0478 34.601 44.357 35.546 0 1-1.6247 0.97779 34.601 44.357 35.546 0 1-1.6476 0.90593 34.601 44.357 35.546 0 1-1.6672 0.83309 34.601 44.357 35.546 0 1-1.6835 0.75687 34.601 44.357 35.546 0 1-1.6959 0.68124 34.601 44.357 35.546 0 1-1.705 0.60223 34.601 44.357 35.546 0 1-1.7107 0.52336 34.601 44.357 35.546 0 1-1.7131 0.44347 34.601 44.357 35.546 0 1-0.86899 0.18347 34.601 44.357 35.546 0 0 12.184 21.05 34.601 44.357 35.546 0 0 1.2386 0.70432 22.846 50.746 35.2 0 1 15.906-41.822 22.846 50.746 35.2 0 1 0.48996-0.65651z" fill="#00fd77"/></g><g transform="translate(30.228 -19.762)"><path d="m53.858 60.061a34.601 44.357 35.546 0 0-2.355-1.4532 22.846 50.746 35.2 0 1-15.279 43.228l0.01642 0.0103a34.601 44.357 35.546 0 1 29.87-20.688 34.601 44.357 35.546 0 0-12.252-21.097zm-26.939 76.792a34.601 44.357 35.546 0 0 0.869-0.18349 34.601 44.357 35.546 0 0 1.7131-0.44349 34.601 44.357 35.546 0 0 1.7107-0.52336 34.601 44.357 35.546 0 0 1.705-0.60223 34.601 44.357 35.546 0 0 1.6959-0.68121 34.601 44.357 35.546 0 0 1.6835-0.75691 34.601 44.357 35.546 0 0 1.6672-0.83306 34.601 44.357 35.546 0 0 1.6476-0.90595 34.601 44.357 35.546 0 0 1.6247-0.97779 34.601 44.357 35.546 0 0 1.5996-1.0478 34.601 44.357 35.546 0 0 1.5695-1.1146 34.601 44.357 35.546 0 0 1.5374-1.1806 34.601 44.357 35.546 0 0 1.5019-1.2432 34.601 44.357 35.546 0 0 1.4643-1.3041 34.601 44.357 35.546 0 0 1.4217-1.3617 34.601 44.357 35.546 0 0 1.3776-1.417 34.601 44.357 35.546 0 0 1.3308-1.4686 34.601 44.357 35.546 0 0 1.2807-1.518 34.601 44.357 35.546 0 0 1.2291-1.5652 34.601 44.357 35.546 0 0 1.1737-1.6071 34.601 44.357 35.546 0 0 1.1162-1.6472 34.601 44.357 35.546 0 0 1.0577-1.6846 34.601 44.357 35.546 0 0 0.99552-1.7168 34.601 44.357 35.546 0 0 0.93176-1.7467 34.601 44.357 35.546 0 0 0.867-1.7728 34.601 44.357 35.546 0 0 0.79966-1.7951 34.601 44.357 35.546 0 0 0.73072-1.8152 34.601 44.357 35.546 0 0 0.66037-1.8296 34.601 44.357 35.546 0 0 0.58904-1.8413 34.601 44.357 35.546 0 0 0.51555-1.8489 34.601 44.357 35.546 0 0 0.44235-1.8541 34.601 44.357 35.546 0 0 0.36768-1.8536 34.601 44.357 35.546 0 0 0.292-1.8505 34.601 44.357 35.546 0 0 0.21651-1.8439 34.601 44.357 35.546 0 0 0.13895-1.8331 34.601 44.357 35.546 0 0 0.06333-1.8187 34.601 44.357 35.546 0 0-0.01448-1.8002 34.601 44.357 35.546 0 0-0.09085-1.7787 34.601 44.357 35.546 0 0-0.16714-1.7535 34.601 44.357 35.546 0 0-0.12393-0.87532 34.601 44.357 35.546 0 0-29.87 20.688 34.601 44.357 35.546 0 0-9.3206 35.007zm29.803-20.735a34.601 44.357 35.546 0 1-1.1737 1.6071 34.601 44.357 35.546 0 1-1.2291 1.5652 34.601 44.357 35.546 0 1-1.2807 1.518 34.601 44.357 35.546 0 1-1.3308 1.4686 34.601 44.357 35.546 0 1-1.3776 1.4171 34.601 44.357 35.546 0 1-1.4217 1.3617 34.601 44.357 35.546 0 1-1.4643 1.3041 34.601 44.357 35.546 0 1-1.5019 1.2433 34.601 44.357 35.546 0 1-1.5373 1.1806 34.601 44.357 35.546 0 1-1.5696 1.1146 34.601 44.357 35.546 0 1-1.5996 1.0478 34.601 44.357 35.546 0 1-1.6247 0.97779 34.601 44.357 35.546 0 1-1.6476 0.90593 34.601 44.357 35.546 0 1-1.6672 0.83309 34.601 44.357 35.546 0 1-1.6835 0.75687 34.601 44.357 35.546 0 1-1.6959 0.68124 34.601 44.357 35.546 0 1-1.705 0.60223 34.601 44.357 35.546 0 1-1.7107 0.52336 34.601 44.357 35.546 0 1-1.7131 0.44347 34.601 44.357 35.546 0 1-0.86899 0.18347 34.601 44.357 35.546 0 0 12.184 21.05 34.601 44.357 35.546 0 0 1.2386 0.70432 22.846 50.746 35.2 0 1 15.906-41.822 22.846 50.746 35.2 0 1 0.48996-0.65651z" stroke="#000" stroke-linecap="square" stroke-width="3"/><path d="m53.858 60.061a34.601 44.357 35.546 0 0-2.355-1.4532 22.846 50.746 35.2 0 1-15.279 43.228l0.01642 0.0103a34.601 44.357 35.546 0 1 29.87-20.688 34.601 44.357 35.546 0 0-12.252-21.097zm-26.939 76.792a34.601 44.357 35.546 0 0 0.869-0.18349 34.601 44.357 35.546 0 0 1.7131-0.44349 34.601 44.357 35.546 0 0 1.7107-0.52336 34.601 44.357 35.546 0 0 1.705-0.60223 34.601 44.357 35.546 0 0 1.6959-0.68121 34.601 44.357 35.546 0 0 1.6835-0.75691 34.601 44.357 35.546 0 0 1.6672-0.83306 34.601 44.357 35.546 0 0 1.6476-0.90595 34.601 44.357 35.546 0 0 1.6247-0.97779 34.601 44.357 35.546 0 0 1.5996-1.0478 34.601 44.357 35.546 0 0 1.5695-1.1146 34.601 44.357 35.546 0 0 1.5374-1.1806 34.601 44.357 35.546 0 0 1.5019-1.2432 34.601 44.357 35.546 0 0 1.4643-1.3041 34.601 44.357 35.546 0 0 1.4217-1.3617 34.601 44.357 35.546 0 0 1.3776-1.417 34.601 44.357 35.546 0 0 1.3308-1.4686 34.601 44.357 35.546 0 0 1.2807-1.518 34.601 44.357 35.546 0 0 1.2291-1.5652 34.601 44.357 35.546 0 0 1.1737-1.6071 34.601 44.357 35.546 0 0 1.1162-1.6472 34.601 44.357 35.546 0 0 1.0577-1.6846 34.601 44.357 35.546 0 0 0.99552-1.7168 34.601 44.357 35.546 0 0 0.93176-1.7467 34.601 44.357 35.546 0 0 0.867-1.7728 34.601 44.357 35.546 0 0 0.79966-1.7951 34.601 44.357 35.546 0 0 0.73072-1.8152 34.601 44.357 35.546 0 0 0.66037-1.8296 34.601 44.357 35.546 0 0 0.58904-1.8413 34.601 44.357 35.546 0 0 0.51555-1.8489 34.601 44.357 35.546 0 0 0.44235-1.8541 34.601 44.357 35.546 0 0 0.36768-1.8536 34.601 44.357 35.546 0 0 0.292-1.8505 34.601 44.357 35.546 0 0 0.21651-1.8439 34.601 44.357 35.546 0 0 0.13895-1.8331 34.601 44.357 35.546 0 0 0.06333-1.8187 34.601 44.357 35.546 0 0-0.01448-1.8002 34.601 44.357 35.546 0 0-0.09085-1.7787 34.601 44.357 35.546 0 0-0.16714-1.7535 34.601 44.357 35.546 0 0-0.12393-0.87532 34.601 44.357 35.546 0 0-29.87 20.688 34.601 44.357 35.546 0 0-9.3206 35.007zm29.803-20.735a34.601 44.357 35.546 0 1-1.1737 1.6071 34.601 44.357 35.546 0 1-1.2291 1.5652 34.601 44.357 35.546 0 1-1.2807 1.518 34.601 44.357 35.546 0 1-1.3308 1.4686 34.601 44.357 35.546 0 1-1.3776 1.4171 34.601 44.357 35.546 0 1-1.4217 1.3617 34.601 44.357 35.546 0 1-1.4643 1.3041 34.601 44.357 35.546 0 1-1.5019 1.2433 34.601 44.357 35.546 0 1-1.5373 1.1806 34.601 44.357 35.546 0 1-1.5696 1.1146 34.601 44.357 35.546 0 1-1.5996 1.0478 34.601 44.357 35.546 0 1-1.6247 0.97779 34.601 44.357 35.546 0 1-1.6476 0.90593 34.601 44.357 35.546 0 1-1.6672 0.83309 34.601 44.357 35.546 0 1-1.6835 0.75687 34.601 44.357 35.546 0 1-1.6959 0.68124 34.601 44.357 35.546 0 1-1.705 0.60223 34.601 44.357 35.546 0 1-1.7107 0.52336 34.601 44.357 35.546 0 1-1.7131 0.44347 34.601 44.357 35.546 0 1-0.86899 0.18347 34.601 44.357 35.546 0 0 12.184 21.05 34.601 44.357 35.546 0 0 1.2386 0.70432 22.846 50.746 35.2 0 1 15.906-41.822 22.846 50.746 35.2 0 1 0.48996-0.65651z" fill="#00b756"/></g><g transform="translate(45.865 -13.532)"><path d="m53.858 60.061a34.601 44.357 35.546 0 0-2.355-1.4532 22.846 50.746 35.2 0 1-15.279 43.228l0.01642 0.0103a34.601 44.357 35.546 0 1 29.87-20.688 34.601 44.357 35.546 0 0-12.252-21.097zm-26.939 76.792a34.601 44.357 35.546 0 0 0.869-0.18349 34.601 44.357 35.546 0 0 1.7131-0.44349 34.601 44.357 35.546 0 0 1.7107-0.52336 34.601 44.357 35.546 0 0 1.705-0.60223 34.601 44.357 35.546 0 0 1.6959-0.68121 34.601 44.357 35.546 0 0 1.6835-0.75691 34.601 44.357 35.546 0 0 1.6672-0.83306 34.601 44.357 35.546 0 0 1.6476-0.90595 34.601 44.357 35.546 0 0 1.6247-0.97779 34.601 44.357 35.546 0 0 1.5996-1.0478 34.601 44.357 35.546 0 0 1.5695-1.1146 34.601 44.357 35.546 0 0 1.5374-1.1806 34.601 44.357 35.546 0 0 1.5019-1.2432 34.601 44.357 35.546 0 0 1.4643-1.3041 34.601 44.357 35.546 0 0 1.4217-1.3617 34.601 44.357 35.546 0 0 1.3776-1.417 34.601 44.357 35.546 0 0 1.3308-1.4686 34.601 44.357 35.546 0 0 1.2807-1.518 34.601 44.357 35.546 0 0 1.2291-1.5652 34.601 44.357 35.546 0 0 1.1737-1.6071 34.601 44.357 35.546 0 0 1.1162-1.6472 34.601 44.357 35.546 0 0 1.0577-1.6846 34.601 44.357 35.546 0 0 0.99552-1.7168 34.601 44.357 35.546 0 0 0.93176-1.7467 34.601 44.357 35.546 0 0 0.867-1.7728 34.601 44.357 35.546 0 0 0.79966-1.7951 34.601 44.357 35.546 0 0 0.73072-1.8152 34.601 44.357 35.546 0 0 0.66037-1.8296 34.601 44.357 35.546 0 0 0.58904-1.8413 34.601 44.357 35.546 0 0 0.51555-1.8489 34.601 44.357 35.546 0 0 0.44235-1.8541 34.601 44.357 35.546 0 0 0.36768-1.8536 34.601 44.357 35.546 0 0 0.292-1.8505 34.601 44.357 35.546 0 0 0.21651-1.8439 34.601 44.357 35.546 0 0 0.13895-1.8331 34.601 44.357 35.546 0 0 0.06333-1.8187 34.601 44.357 35.546 0 0-0.01448-1.8002 34.601 44.357 35.546 0 0-0.09085-1.7787 34.601 44.357 35.546 0 0-0.16714-1.7535 34.601 44.357 35.546 0 0-0.12393-0.87532 34.601 44.357 35.546 0 0-29.87 20.688 34.601 44.357 35.546 0 0-9.3206 35.007zm29.803-20.735a34.601 44.357 35.546 0 1-1.1737 1.6071 34.601 44.357 35.546 0 1-1.2291 1.5652 34.601 44.357 35.546 0 1-1.2807 1.518 34.601 44.357 35.546 0 1-1.3308 1.4686 34.601 44.357 35.546 0 1-1.3776 1.4171 34.601 44.357 35.546 0 1-1.4217 1.3617 34.601 44.357 35.546 0 1-1.4643 1.3041 34.601 44.357 35.546 0 1-1.5019 1.2433 34.601 44.357 35.546 0 1-1.5373 1.1806 34.601 44.357 35.546 0 1-1.5696 1.1146 34.601 44.357 35.546 0 1-1.5996 1.0478 34.601 44.357 35.546 0 1-1.6247 0.97779 34.601 44.357 35.546 0 1-1.6476 0.90593 34.601 44.357 35.546 0 1-1.6672 0.83309 34.601 44.357 35.546 0 1-1.6835 0.75687 34.601 44.357 35.546 0 1-1.6959 0.68124 34.601 44.357 35.546 0 1-1.705 0.60223 34.601 44.357 35.546 0 1-1.7107 0.52336 34.601 44.357 35.546 0 1-1.7131 0.44347 34.601 44.357 35.546 0 1-0.86899 0.18347 34.601 44.357 35.546 0 0 12.184 21.05 34.601 44.357 35.546 0 0 1.2386 0.70432 22.846 50.746 35.2 0 1 15.906-41.822 22.846 50.746 35.2 0 1 0.48996-0.65651z" stroke="#000" stroke-linecap="square" stroke-width="3"/><path d="m53.858 60.061a34.601 44.357 35.546 0 0-2.355-1.4532 22.846 50.746 35.2 0 1-15.279 43.228l0.01642 0.0103a34.601 44.357 35.546 0 1 29.87-20.688 34.601 44.357 35.546 0 0-12.252-21.097zm-26.939 76.792a34.601 44.357 35.546 0 0 0.869-0.18349 34.601 44.357 35.546 0 0 1.7131-0.44349 34.601 44.357 35.546 0 0 1.7107-0.52336 34.601 44.357 35.546 0 0 1.705-0.60223 34.601 44.357 35.546 0 0 1.6959-0.68121 34.601 44.357 35.546 0 0 1.6835-0.75691 34.601 44.357 35.546 0 0 1.6672-0.83306 34.601 44.357 35.546 0 0 1.6476-0.90595 34.601 44.357 35.546 0 0 1.6247-0.97779 34.601 44.357 35.546 0 0 1.5996-1.0478 34.601 44.357 35.546 0 0 1.5695-1.1146 34.601 44.357 35.546 0 0 1.5374-1.1806 34.601 44.357 35.546 0 0 1.5019-1.2432 34.601 44.357 35.546 0 0 1.4643-1.3041 34.601 44.357 35.546 0 0 1.4217-1.3617 34.601 44.357 35.546 0 0 1.3776-1.417 34.601 44.357 35.546 0 0 1.3308-1.4686 34.601 44.357 35.546 0 0 1.2807-1.518 34.601 44.357 35.546 0 0 1.2291-1.5652 34.601 44.357 35.546 0 0 1.1737-1.6071 34.601 44.357 35.546 0 0 1.1162-1.6472 34.601 44.357 35.546 0 0 1.0577-1.6846 34.601 44.357 35.546 0 0 0.99552-1.7168 34.601 44.357 35.546 0 0 0.93176-1.7467 34.601 44.357 35.546 0 0 0.867-1.7728 34.601 44.357 35.546 0 0 0.79966-1.7951 34.601 44.357 35.546 0 0 0.73072-1.8152 34.601 44.357 35.546 0 0 0.66037-1.8296 34.601 44.357 35.546 0 0 0.58904-1.8413 34.601 44.357 35.546 0 0 0.51555-1.8489 34.601 44.357 35.546 0 0 0.44235-1.8541 34.601 44.357 35.546 0 0 0.36768-1.8536 34.601 44.357 35.546 0 0 0.292-1.8505 34.601 44.357 35.546 0 0 0.21651-1.8439 34.601 44.357 35.546 0 0 0.13895-1.8331 34.601 44.357 35.546 0 0 0.06333-1.8187 34.601 44.357 35.546 0 0-0.01448-1.8002 34.601 44.357 35.546 0 0-0.09085-1.7787 34.601 44.357 35.546 0 0-0.16714-1.7535 34.601 44.357 35.546 0 0-0.12393-0.87532 34.601 44.357 35.546 0 0-29.87 20.688 34.601 44.357 35.546 0 0-9.3206 35.007zm29.803-20.735a34.601 44.357 35.546 0 1-1.1737 1.6071 34.601 44.357 35.546 0 1-1.2291 1.5652 34.601 44.357 35.546 0 1-1.2807 1.518 34.601 44.357 35.546 0 1-1.3308 1.4686 34.601 44.357 35.546 0 1-1.3776 1.4171 34.601 44.357 35.546 0 1-1.4217 1.3617 34.601 44.357 35.546 0 1-1.4643 1.3041 34.601 44.357 35.546 0 1-1.5019 1.2433 34.601 44.357 35.546 0 1-1.5373 1.1806 34.601 44.357 35.546 0 1-1.5696 1.1146 34.601 44.357 35.546 0 1-1.5996 1.0478 34.601 44.357 35.546 0 1-1.6247 0.97779 34.601 44.357 35.546 0 1-1.6476 0.90593 34.601 44.357 35.546 0 1-1.6672 0.83309 34.601 44.357 35.546 0 1-1.6835 0.75687 34.601 44.357 35.546 0 1-1.6959 0.68124 34.601 44.357 35.546 0 1-1.705 0.60223 34.601 44.357 35.546 0 1-1.7107 0.52336 34.601 44.357 35.546 0 1-1.7131 0.44347 34.601 44.357 35.546 0 1-0.86899 0.18347 34.601 44.357 35.546 0 0 12.184 21.05 34.601 44.357 35.546 0 0 1.2386 0.70432 22.846 50.746 35.2 0 1 15.906-41.822 22.846 50.746 35.2 0 1 0.48996-0.65651z" fill="#00fd77"/></g><g transform="translate(61.502 -7.3022)"><path d="m53.858 60.061a34.601 44.357 35.546 0 0-2.355-1.4532 22.846 50.746 35.2 0 1-15.279 43.228l0.01642 0.0103a34.601 44.357 35.546 0 1 29.87-20.688 34.601 44.357 35.546 0 0-12.252-21.097zm-26.939 76.792a34.601 44.357 35.546 0 0 0.869-0.18349 34.601 44.357 35.546 0 0 1.7131-0.44349 34.601 44.357 35.546 0 0 1.7107-0.52336 34.601 44.357 35.546 0 0 1.705-0.60223 34.601 44.357 35.546 0 0 1.6959-0.68121 34.601 44.357 35.546 0 0 1.6835-0.75691 34.601 44.357 35.546 0 0 1.6672-0.83306 34.601 44.357 35.546 0 0 1.6476-0.90595 34.601 44.357 35.546 0 0 1.6247-0.97779 34.601 44.357 35.546 0 0 1.5996-1.0478 34.601 44.357 35.546 0 0 1.5695-1.1146 34.601 44.357 35.546 0 0 1.5374-1.1806 34.601 44.357 35.546 0 0 1.5019-1.2432 34.601 44.357 35.546 0 0 1.4643-1.3041 34.601 44.357 35.546 0 0 1.4217-1.3617 34.601 44.357 35.546 0 0 1.3776-1.417 34.601 44.357 35.546 0 0 1.3308-1.4686 34.601 44.357 35.546 0 0 1.2807-1.518 34.601 44.357 35.546 0 0 1.2291-1.5652 34.601 44.357 35.546 0 0 1.1737-1.6071 34.601 44.357 35.546 0 0 1.1162-1.6472 34.601 44.357 35.546 0 0 1.0577-1.6846 34.601 44.357 35.546 0 0 0.99552-1.7168 34.601 44.357 35.546 0 0 0.93176-1.7467 34.601 44.357 35.546 0 0 0.867-1.7728 34.601 44.357 35.546 0 0 0.79966-1.7951 34.601 44.357 35.546 0 0 0.73072-1.8152 34.601 44.357 35.546 0 0 0.66037-1.8296 34.601 44.357 35.546 0 0 0.58904-1.8413 34.601 44.357 35.546 0 0 0.51555-1.8489 34.601 44.357 35.546 0 0 0.44235-1.8541 34.601 44.357 35.546 0 0 0.36768-1.8536 34.601 44.357 35.546 0 0 0.292-1.8505 34.601 44.357 35.546 0 0 0.21651-1.8439 34.601 44.357 35.546 0 0 0.13895-1.8331 34.601 44.357 35.546 0 0 0.06333-1.8187 34.601 44.357 35.546 0 0-0.01448-1.8002 34.601 44.357 35.546 0 0-0.09085-1.7787 34.601 44.357 35.546 0 0-0.16714-1.7535 34.601 44.357 35.546 0 0-0.12393-0.87532 34.601 44.357 35.546 0 0-29.87 20.688 34.601 44.357 35.546 0 0-9.3206 35.007zm29.803-20.735a34.601 44.357 35.546 0 1-1.1737 1.6071 34.601 44.357 35.546 0 1-1.2291 1.5652 34.601 44.357 35.546 0 1-1.2807 1.518 34.601 44.357 35.546 0 1-1.3308 1.4686 34.601 44.357 35.546 0 1-1.3776 1.4171 34.601 44.357 35.546 0 1-1.4217 1.3617 34.601 44.357 35.546 0 1-1.4643 1.3041 34.601 44.357 35.546 0 1-1.5019 1.2433 34.601 44.357 35.546 0 1-1.5373 1.1806 34.601 44.357 35.546 0 1-1.5696 1.1146 34.601 44.357 35.546 0 1-1.5996 1.0478 34.601 44.357 35.546 0 1-1.6247 0.97779 34.601 44.357 35.546 0 1-1.6476 0.90593 34.601 44.357 35.546 0 1-1.6672 0.83309 34.601 44.357 35.546 0 1-1.6835 0.75687 34.601 44.357 35.546 0 1-1.6959 0.68124 34.601 44.357 35.546 0 1-1.705 0.60223 34.601 44.357 35.546 0 1-1.7107 0.52336 34.601 44.357 35.546 0 1-1.7131 0.44347 34.601 44.357 35.546 0 1-0.86899 0.18347 34.601 44.357 35.546 0 0 12.184 21.05 34.601 44.357 35.546 0 0 1.2386 0.70432 22.846 50.746 35.2 0 1 15.906-41.822 22.846 50.746 35.2 0 1 0.48996-0.65651z" stroke="#000" stroke-linecap="square" stroke-width="3"/><path d="m53.858 60.061a34.601 44.357 35.546 0 0-2.355-1.4532 22.846 50.746 35.2 0 1-15.279 43.228l0.01642 0.0103a34.601 44.357 35.546 0 1 29.87-20.688 34.601 44.357 35.546 0 0-12.252-21.097zm-26.939 76.792a34.601 44.357 35.546 0 0 0.869-0.18349 34.601 44.357 35.546 0 0 1.7131-0.44349 34.601 44.357 35.546 0 0 1.7107-0.52336 34.601 44.357 35.546 0 0 1.705-0.60223 34.601 44.357 35.546 0 0 1.6959-0.68121 34.601 44.357 35.546 0 0 1.6835-0.75691 34.601 44.357 35.546 0 0 1.6672-0.83306 34.601 44.357 35.546 0 0 1.6476-0.90595 34.601 44.357 35.546 0 0 1.6247-0.97779 34.601 44.357 35.546 0 0 1.5996-1.0478 34.601 44.357 35.546 0 0 1.5695-1.1146 34.601 44.357 35.546 0 0 1.5374-1.1806 34.601 44.357 35.546 0 0 1.5019-1.2432 34.601 44.357 35.546 0 0 1.4643-1.3041 34.601 44.357 35.546 0 0 1.4217-1.3617 34.601 44.357 35.546 0 0 1.3776-1.417 34.601 44.357 35.546 0 0 1.3308-1.4686 34.601 44.357 35.546 0 0 1.2807-1.518 34.601 44.357 35.546 0 0 1.2291-1.5652 34.601 44.357 35.546 0 0 1.1737-1.6071 34.601 44.357 35.546 0 0 1.1162-1.6472 34.601 44.357 35.546 0 0 1.0577-1.6846 34.601 44.357 35.546 0 0 0.99552-1.7168 34.601 44.357 35.546 0 0 0.93176-1.7467 34.601 44.357 35.546 0 0 0.867-1.7728 34.601 44.357 35.546 0 0 0.79966-1.7951 34.601 44.357 35.546 0 0 0.73072-1.8152 34.601 44.357 35.546 0 0 0.66037-1.8296 34.601 44.357 35.546 0 0 0.58904-1.8413 34.601 44.357 35.546 0 0 0.51555-1.8489 34.601 44.357 35.546 0 0 0.44235-1.8541 34.601 44.357 35.546 0 0 0.36768-1.8536 34.601 44.357 35.546 0 0 0.292-1.8505 34.601 44.357 35.546 0 0 0.21651-1.8439 34.601 44.357 35.546 0 0 0.13895-1.8331 34.601 44.357 35.546 0 0 0.06333-1.8187 34.601 44.357 35.546 0 0-0.01448-1.8002 34.601 44.357 35.546 0 0-0.09085-1.7787 34.601 44.357 35.546 0 0-0.16714-1.7535 34.601 44.357 35.546 0 0-0.12393-0.87532 34.601 44.357 35.546 0 0-29.87 20.688 34.601 44.357 35.546 0 0-9.3206 35.007zm29.803-20.735a34.601 44.357 35.546 0 1-1.1737 1.6071 34.601 44.357 35.546 0 1-1.2291 1.5652 34.601 44.357 35.546 0 1-1.2807 1.518 34.601 44.357 35.546 0 1-1.3308 1.4686 34.601 44.357 35.546 0 1-1.3776 1.4171 34.601 44.357 35.546 0 1-1.4217 1.3617 34.601 44.357 35.546 0 1-1.4643 1.3041 34.601 44.357 35.546 0 1-1.5019 1.2433 34.601 44.357 35.546 0 1-1.5373 1.1806 34.601 44.357 35.546 0 1-1.5696 1.1146 34.601 44.357 35.546 0 1-1.5996 1.0478 34.601 44.357 35.546 0 1-1.6247 0.97779 34.601 44.357 35.546 0 1-1.6476 0.90593 34.601 44.357 35.546 0 1-1.6672 0.83309 34.601 44.357 35.546 0 1-1.6835 0.75687 34.601 44.357 35.546 0 1-1.6959 0.68124 34.601 44.357 35.546 0 1-1.705 0.60223 34.601 44.357 35.546 0 1-1.7107 0.52336 34.601 44.357 35.546 0 1-1.7131 0.44347 34.601 44.357 35.546 0 1-0.86899 0.18347 34.601 44.357 35.546 0 0 12.184 21.05 34.601 44.357 35.546 0 0 1.2386 0.70432 22.846 50.746 35.2 0 1 15.906-41.822 22.846 50.746 35.2 0 1 0.48996-0.65651z" fill="#00b756"/></g></g></g></g><g transform="matrix(.69973 0 0 .69973 28.616 67.412)"><g><path d="m194.14 196.19-46.787-0.77224-22.122-53.794 23.294-48.296z" fill="#81a1c1"/><path d="m125.45 142.67 21.485 52.392 10.153-0.28291-10.353-57.648-13.538-12.46z" fill="#5e81ac"/><path d="m161.63 126.01-13.938 16.286-14.499-17.043 14.7-33.272z" fill="#eceff4"/></g><path d="m125.63 141.13 22.175-50.374 46.851 106.22-48.004-1.2536m1.1265-53.314 14.461-17.537m-29.885 0.70101 14.918 16.715 10.062 54.086" fill="none" stroke="#000" stroke-linecap="round" stroke-linejoin="round" stroke-width="5"/></g><g><g><path d="m109.72 217.33-4.9813-36.746 27.618 22.927z" fill="#3b5b82"/><path d="m130.17 202.93-23.578-18.459-19.423-13.532 1.3019-30.935 11.169-10.643" fill="#5e81ac"/><path d="m89.111 142.34 10.472-12.182-9.9822-22.423-1.3936 34.842" fill="#d8dee9"/><path d="m74.591 142.84 14.785-0.78122-0.01077-32.596" fill="#eceff4"/><path d="m110.75 217.01-4.162-32.653-17.168-13.466-0.05366-28.846-15.133 0.0598-12.237 26.321-14.996 37.144z" fill="#81a1c1"/></g><g transform="matrix(.69973 0 0 .69973 28.616 67.412)" fill="none" stroke="#000" stroke-linecap="round" stroke-linejoin="round"><path d="m48.478 142.8 38.7-88.171 60.444 141.37-29.593 17.7-50.826-9.0461m44.86-37.467 5.5427 45.382m-30.317-153.92-0.52996 88.476 59.908 47.645" stroke-width="5"/><path d="m48.478 142.8-22.201 54.639 40.926 7.2132" stroke-width="5"/></g></g></g></svg>
