<svg width="1000" height="1000" viewBox="0 0 1000 1000" xml:space="preserve" xmlns="http://www.w3.org/2000/svg">
  <path d="M53.858 60.061a34.601 44.357 35.546 0 0-2.355-1.453 22.846 50.746 35.2 0 1-15.279 43.228l.016.01a34.601 44.357 35.546 0 1 29.87-20.688 34.601 44.357 35.546 0 0-12.252-21.097zm-26.939 76.792a34.601 44.357 35.546 0 0 .869-.183 34.601 44.357 35.546 0 0 1.713-.444 34.601 44.357 35.546 0 0 1.71-.523 34.601 44.357 35.546 0 0 1.706-.603 34.601 44.357 35.546 0 0 1.696-.68 34.601 44.357 35.546 0 0 1.683-.758 34.601 44.357 35.546 0 0 1.667-.833 34.601 44.357 35.546 0 0 1.648-.906 34.601 44.357 35.546 0 0 1.625-.977 34.601 44.357 35.546 0 0 1.6-1.048 34.601 44.357 35.546 0 0 1.569-1.115 34.601 44.357 35.546 0 0 1.537-1.18 34.601 44.357 35.546 0 0 1.502-1.244 34.601 44.357 35.546 0 0 1.464-1.304 34.601 44.357 35.546 0 0 1.422-1.361 34.601 44.357 35.546 0 0 1.378-1.417 34.601 44.357 35.546 0 0 1.33-1.47 34.601 44.357 35.546 0 0 1.281-1.517 34.601 44.357 35.546 0 0 1.23-1.565 34.601 44.357 35.546 0 0 1.173-1.607 34.601 44.357 35.546 0 0 1.116-1.648 34.601 44.357 35.546 0 0 1.058-1.684 34.601 44.357 35.546 0 0 .995-1.717 34.601 44.357 35.546 0 0 .932-1.747 34.601 44.357 35.546 0 0 .867-1.772 34.601 44.357 35.546 0 0 .8-1.796 34.601 44.357 35.546 0 0 .73-1.815 34.601 44.357 35.546 0 0 .66-1.83 34.601 44.357 35.546 0 0 .59-1.84 34.601 44.357 35.546 0 0 .516-1.85 34.601 44.357 35.546 0 0 .442-1.854 34.601 44.357 35.546 0 0 .368-1.853 34.601 44.357 35.546 0 0 .292-1.85 34.601 44.357 35.546 0 0 .216-1.845 34.601 44.357 35.546 0 0 .139-1.833 34.601 44.357 35.546 0 0 .063-1.818 34.601 44.357 35.546 0 0-.014-1.8 34.601 44.357 35.546 0 0-.091-1.78 34.601 44.357 35.546 0 0-.167-1.753 34.601 44.357 35.546 0 0-.124-.875 34.601 44.357 35.546 0 0-29.87 20.688 34.601 44.357 35.546 0 0-9.32 35.007zm29.803-20.735a34.601 44.357 35.546 0 1-1.174 1.607 34.601 44.357 35.546 0 1-1.229 1.565 34.601 44.357 35.546 0 1-1.28 1.518 34.601 44.357 35.546 0 1-1.331 1.469 34.601 44.357 35.546 0 1-1.378 1.417 34.601 44.357 35.546 0 1-1.422 1.362 34.601 44.357 35.546 0 1-1.464 1.304 34.601 44.357 35.546 0 1-1.502 1.243 34.601 44.357 35.546 0 1-1.537 1.18 34.601 44.357 35.546 0 1-1.57 1.115 34.601 44.357 35.546 0 1-1.6 1.048 34.601 44.357 35.546 0 1-1.624.978 34.601 44.357 35.546 0 1-1.648.906 34.601 44.357 35.546 0 1-1.667.833 34.601 44.357 35.546 0 1-1.683.757 34.601 44.357 35.546 0 1-1.696.681 34.601 44.357 35.546 0 1-1.705.602 34.601 44.357 35.546 0 1-1.71.524 34.601 44.357 35.546 0 1-1.714.443 34.601 44.357 35.546 0 1-.869.184 34.601 44.357 35.546 0 0 12.184 21.05 34.601 44.357 35.546 0 0 1.239.704 22.846 50.746 35.2 0 1 15.906-41.822 22.846 50.746 35.2 0 1 .49-.657z" stroke="#000" stroke-linecap="square" stroke-width="3" transform="matrix(3.65184 4.91035 -8.81632 3.43875 1292.593 -436.32)"/>
  <path d="M959.757 34.676a203.656 420.89 83.863 0 0 4.21-16.56A136.306 475.02 88.319 0 1 527.058 91.74l-.03.113a203.656 420.89 83.863 0 1 291.473 75.53A203.656 420.89 83.863 0 0 959.757 34.677m-775.4 131.789a203.656 420.89 83.863 0 0 4.786 3.637 203.656 420.89 83.863 0 0 10.17 6.885 203.656 420.89 83.863 0 0 10.856 6.598 203.656 420.89 83.863 0 0 11.546 6.304 203.656 420.89 83.863 0 0 12.189 5.99 203.656 420.89 83.863 0 0 12.829 5.657 203.656 420.89 83.863 0 0 13.431 5.32 203.656 420.89 83.863 0 0 14.006 4.978 203.656 420.89 83.863 0 0 14.548 4.62 203.656 420.89 83.863 0 0 15.082 4.252 203.656 420.89 83.863 0 0 15.56 3.87 203.656 420.89 83.863 0 0 16.016 3.49 203.656 420.89 83.863 0 0 16.453 3.097 203.656 420.89 83.863 0 0 16.843 2.705 203.656 420.89 83.863 0 0 17.192 2.302 203.656 420.89 83.863 0 0 17.525 1.894 203.656 420.89 83.863 0 0 17.817 1.476 203.656 420.89 83.863 0 0 18.052 1.073 203.656 420.89 83.863 0 0 18.29.658 203.656 420.89 83.863 0 0 18.45.234 203.656 420.89 83.863 0 0 18.605-.187 203.656 420.89 83.863 0 0 18.71-.596 203.656 420.89 83.863 0 0 18.772-1.018 203.656 420.89 83.863 0 0 18.806-1.431 203.656 420.89 83.863 0 0 18.788-1.836 203.656 420.89 83.863 0 0 18.756-2.248 203.656 420.89 83.863 0 0 18.667-2.657 203.656 420.89 83.863 0 0 18.544-3.052 203.656 420.89 83.863 0 0 18.377-3.43 203.656 420.89 83.863 0 0 18.195-3.828 203.656 420.89 83.863 0 0 17.96-4.205 203.656 420.89 83.863 0 0 17.68-4.565 203.656 420.89 83.863 0 0 17.376-4.928 203.656 420.89 83.863 0 0 17.055-5.284 203.656 420.89 83.863 0 0 16.668-5.62 203.656 420.89 83.863 0 0 16.258-5.943 203.656 420.89 83.863 0 0 15.819-6.258 203.656 420.89 83.863 0 0 15.36-6.568 203.656 420.89 83.863 0 0 14.845-6.848 203.656 420.89 83.863 0 0 7.262-3.618 203.656 420.89 83.863 0 0-291.473-75.531A203.656 420.89 83.863 0 0 184.36 166.47zm291.642 75.04a203.656 420.89 83.863 0 1-18.455-.238 203.656 420.89 83.863 0 1-18.286-.654 203.656 420.89 83.863 0 1-18.058-1.065 203.656 420.89 83.863 0 1-17.811-1.484 203.656 420.89 83.863 0 1-17.525-1.894 203.656 420.89 83.863 0 1-17.201-2.299 203.656 420.89 83.863 0 1-16.843-2.704 203.656 420.89 83.863 0 1-16.444-3.101 203.656 420.89 83.863 0 1-16.016-3.49 203.656 420.89 83.863 0 1-15.563-3.875 203.656 420.89 83.863 0 1-15.083-4.253 203.656 420.89 83.863 0 1-14.553-4.61 203.656 420.89 83.863 0 1-14.005-4.978 203.656 420.89 83.863 0 1-13.432-5.32 203.656 420.89 83.863 0 1-12.82-5.662 203.656 420.89 83.863 0 1-12.198-5.986 203.656 420.89 83.863 0 1-11.533-6.302 203.656 420.89 83.863 0 1-10.865-6.595 203.656 420.89 83.863 0 1-10.165-6.893 203.656 420.89 83.863 0 1-4.795-3.634 203.656 420.89 83.863 0 0-141.09 132.213 203.656 420.89 83.863 0 0-1.682 8.505 136.306 475.02 88.319 0 1 426.802-65.711 136.306 475.02 88.319 0 1 7.582.147z" fill="#00fd77"/>
  <path d="M53.858 60.061a34.601 44.357 35.546 0 0-2.355-1.453 22.846 50.746 35.2 0 1-15.279 43.228l.016.01a34.601 44.357 35.546 0 1 29.87-20.688 34.601 44.357 35.546 0 0-12.252-21.097zm-26.939 76.792a34.601 44.357 35.546 0 0 .869-.183 34.601 44.357 35.546 0 0 1.713-.444 34.601 44.357 35.546 0 0 1.71-.523 34.601 44.357 35.546 0 0 1.706-.603 34.601 44.357 35.546 0 0 1.696-.68 34.601 44.357 35.546 0 0 1.683-.758 34.601 44.357 35.546 0 0 1.667-.833 34.601 44.357 35.546 0 0 1.648-.906 34.601 44.357 35.546 0 0 1.625-.977 34.601 44.357 35.546 0 0 1.6-1.048 34.601 44.357 35.546 0 0 1.569-1.115 34.601 44.357 35.546 0 0 1.537-1.18 34.601 44.357 35.546 0 0 1.502-1.244 34.601 44.357 35.546 0 0 1.464-1.304 34.601 44.357 35.546 0 0 1.422-1.361 34.601 44.357 35.546 0 0 1.378-1.417 34.601 44.357 35.546 0 0 1.33-1.47 34.601 44.357 35.546 0 0 1.281-1.517 34.601 44.357 35.546 0 0 1.23-1.565 34.601 44.357 35.546 0 0 1.173-1.607 34.601 44.357 35.546 0 0 1.116-1.648 34.601 44.357 35.546 0 0 1.058-1.684 34.601 44.357 35.546 0 0 .995-1.717 34.601 44.357 35.546 0 0 .932-1.747 34.601 44.357 35.546 0 0 .867-1.772 34.601 44.357 35.546 0 0 .8-1.796 34.601 44.357 35.546 0 0 .73-1.815 34.601 44.357 35.546 0 0 .66-1.83 34.601 44.357 35.546 0 0 .59-1.84 34.601 44.357 35.546 0 0 .516-1.85 34.601 44.357 35.546 0 0 .442-1.854 34.601 44.357 35.546 0 0 .368-1.853 34.601 44.357 35.546 0 0 .292-1.85 34.601 44.357 35.546 0 0 .216-1.845 34.601 44.357 35.546 0 0 .139-1.833 34.601 44.357 35.546 0 0 .063-1.818 34.601 44.357 35.546 0 0-.014-1.8 34.601 44.357 35.546 0 0-.091-1.78 34.601 44.357 35.546 0 0-.167-1.753 34.601 44.357 35.546 0 0-.124-.875 34.601 44.357 35.546 0 0-29.87 20.688 34.601 44.357 35.546 0 0-9.32 35.007zm29.803-20.735a34.601 44.357 35.546 0 1-1.174 1.607 34.601 44.357 35.546 0 1-1.229 1.565 34.601 44.357 35.546 0 1-1.28 1.518 34.601 44.357 35.546 0 1-1.331 1.469 34.601 44.357 35.546 0 1-1.378 1.417 34.601 44.357 35.546 0 1-1.422 1.362 34.601 44.357 35.546 0 1-1.464 1.304 34.601 44.357 35.546 0 1-1.502 1.243 34.601 44.357 35.546 0 1-1.537 1.18 34.601 44.357 35.546 0 1-1.57 1.115 34.601 44.357 35.546 0 1-1.6 1.048 34.601 44.357 35.546 0 1-1.624.978 34.601 44.357 35.546 0 1-1.648.906 34.601 44.357 35.546 0 1-1.667.833 34.601 44.357 35.546 0 1-1.683.757 34.601 44.357 35.546 0 1-1.696.681 34.601 44.357 35.546 0 1-1.705.602 34.601 44.357 35.546 0 1-1.71.524 34.601 44.357 35.546 0 1-1.714.443 34.601 44.357 35.546 0 1-.869.184 34.601 44.357 35.546 0 0 12.184 21.05 34.601 44.357 35.546 0 0 1.239.704 22.846 50.746 35.2 0 1 15.906-41.822 22.846 50.746 35.2 0 1 .49-.657z" stroke="#000" stroke-linecap="square" stroke-width="3" transform="matrix(3.65184 4.91035 -8.81632 3.43875 1287.686 -338.112)"/>
  <path d="M954.85 132.884a203.656 420.89 83.863 0 0 4.21-16.56 136.306 475.02 88.319 0 1-436.909 73.625l-.03.113a203.656 420.89 83.863 0 1 291.473 75.53A203.656 420.89 83.863 0 0 954.85 132.885m-775.4 131.789a203.656 420.89 83.863 0 0 4.787 3.637 203.656 420.89 83.863 0 0 10.17 6.885 203.656 420.89 83.863 0 0 10.855 6.598 203.656 420.89 83.863 0 0 11.547 6.304 203.656 420.89 83.863 0 0 12.188 5.99 203.656 420.89 83.863 0 0 12.829 5.657 203.656 420.89 83.863 0 0 13.432 5.32 203.656 420.89 83.863 0 0 14.005 4.978 203.656 420.89 83.863 0 0 14.548 4.62 203.656 420.89 83.863 0 0 15.083 4.252 203.656 420.89 83.863 0 0 15.56 3.87 203.656 420.89 83.863 0 0 16.016 3.49 203.656 420.89 83.863 0 0 16.452 3.097 203.656 420.89 83.863 0 0 16.843 2.705 203.656 420.89 83.863 0 0 17.192 2.302 203.656 420.89 83.863 0 0 17.525 1.894 203.656 420.89 83.863 0 0 17.817 1.476 203.656 420.89 83.863 0 0 18.052 1.073 203.656 420.89 83.863 0 0 18.29.658 203.656 420.89 83.863 0 0 18.451.234 203.656 420.89 83.863 0 0 18.605-.187 203.656 420.89 83.863 0 0 18.71-.596 203.656 420.89 83.863 0 0 18.771-1.018 203.656 420.89 83.863 0 0 18.806-1.431 203.656 420.89 83.863 0 0 18.789-1.836 203.656 420.89 83.863 0 0 18.755-2.248 203.656 420.89 83.863 0 0 18.668-2.657 203.656 420.89 83.863 0 0 18.544-3.052 203.656 420.89 83.863 0 0 18.376-3.43 203.656 420.89 83.863 0 0 18.195-3.828 203.656 420.89 83.863 0 0 17.96-4.205 203.656 420.89 83.863 0 0 17.68-4.565 203.656 420.89 83.863 0 0 17.377-4.928 203.656 420.89 83.863 0 0 17.055-5.284 203.656 420.89 83.863 0 0 16.667-5.62 203.656 420.89 83.863 0 0 16.259-5.943 203.656 420.89 83.863 0 0 15.818-6.258 203.656 420.89 83.863 0 0 15.36-6.568 203.656 420.89 83.863 0 0 14.846-6.848 203.656 420.89 83.863 0 0 7.261-3.618 203.656 420.89 83.863 0 0-291.472-75.531 203.656 420.89 83.863 0 0-342.668 74.615zm291.642 75.04a203.656 420.89 83.863 0 1-18.455-.239 203.656 420.89 83.863 0 1-18.286-.653 203.656 420.89 83.863 0 1-18.057-1.065 203.656 420.89 83.863 0 1-17.812-1.484 203.656 420.89 83.863 0 1-17.525-1.894 203.656 420.89 83.863 0 1-17.2-2.299 203.656 420.89 83.863 0 1-16.843-2.704 203.656 420.89 83.863 0 1-16.444-3.101 203.656 420.89 83.863 0 1-16.016-3.49 203.656 420.89 83.863 0 1-15.564-3.875 203.656 420.89 83.863 0 1-15.082-4.253 203.656 420.89 83.863 0 1-14.553-4.611 203.656 420.89 83.863 0 1-14.006-4.977 203.656 420.89 83.863 0 1-13.432-5.32 203.656 420.89 83.863 0 1-12.82-5.662A203.656 420.89 83.863 0 1 216.8 288.1a203.656 420.89 83.863 0 1-11.534-6.302 203.656 420.89 83.863 0 1-10.864-6.595 203.656 420.89 83.863 0 1-10.165-6.893 203.656 420.89 83.863 0 1-4.796-3.634 203.656 420.89 83.863 0 0-141.09 132.213 203.656 420.89 83.863 0 0-1.682 8.505 136.306 475.02 88.319 0 1 426.803-65.711 136.306 475.02 88.319 0 1 7.582.147z" fill="#00b756"/>
  <path d="M53.858 60.061a34.601 44.357 35.546 0 0-2.355-1.453 22.846 50.746 35.2 0 1-15.279 43.228l.016.01a34.601 44.357 35.546 0 1 29.87-20.688 34.601 44.357 35.546 0 0-12.252-21.097zm-26.939 76.792a34.601 44.357 35.546 0 0 .869-.183 34.601 44.357 35.546 0 0 1.713-.444 34.601 44.357 35.546 0 0 1.71-.523 34.601 44.357 35.546 0 0 1.706-.603 34.601 44.357 35.546 0 0 1.696-.68 34.601 44.357 35.546 0 0 1.683-.758 34.601 44.357 35.546 0 0 1.667-.833 34.601 44.357 35.546 0 0 1.648-.906 34.601 44.357 35.546 0 0 1.625-.977 34.601 44.357 35.546 0 0 1.6-1.048 34.601 44.357 35.546 0 0 1.569-1.115 34.601 44.357 35.546 0 0 1.537-1.18 34.601 44.357 35.546 0 0 1.502-1.244 34.601 44.357 35.546 0 0 1.464-1.304 34.601 44.357 35.546 0 0 1.422-1.361 34.601 44.357 35.546 0 0 1.378-1.417 34.601 44.357 35.546 0 0 1.33-1.47 34.601 44.357 35.546 0 0 1.281-1.517 34.601 44.357 35.546 0 0 1.23-1.565 34.601 44.357 35.546 0 0 1.173-1.607 34.601 44.357 35.546 0 0 1.116-1.648 34.601 44.357 35.546 0 0 1.058-1.684 34.601 44.357 35.546 0 0 .995-1.717 34.601 44.357 35.546 0 0 .932-1.747 34.601 44.357 35.546 0 0 .867-1.772 34.601 44.357 35.546 0 0 .8-1.796 34.601 44.357 35.546 0 0 .73-1.815 34.601 44.357 35.546 0 0 .66-1.83 34.601 44.357 35.546 0 0 .59-1.84 34.601 44.357 35.546 0 0 .516-1.85 34.601 44.357 35.546 0 0 .442-1.854 34.601 44.357 35.546 0 0 .368-1.853 34.601 44.357 35.546 0 0 .292-1.85 34.601 44.357 35.546 0 0 .216-1.845 34.601 44.357 35.546 0 0 .139-1.833 34.601 44.357 35.546 0 0 .063-1.818 34.601 44.357 35.546 0 0-.014-1.8 34.601 44.357 35.546 0 0-.091-1.78 34.601 44.357 35.546 0 0-.167-1.753 34.601 44.357 35.546 0 0-.124-.875 34.601 44.357 35.546 0 0-29.87 20.688 34.601 44.357 35.546 0 0-9.32 35.007zm29.803-20.735a34.601 44.357 35.546 0 1-1.174 1.607 34.601 44.357 35.546 0 1-1.229 1.565 34.601 44.357 35.546 0 1-1.28 1.518 34.601 44.357 35.546 0 1-1.331 1.469 34.601 44.357 35.546 0 1-1.378 1.417 34.601 44.357 35.546 0 1-1.422 1.362 34.601 44.357 35.546 0 1-1.464 1.304 34.601 44.357 35.546 0 1-1.502 1.243 34.601 44.357 35.546 0 1-1.537 1.18 34.601 44.357 35.546 0 1-1.57 1.115 34.601 44.357 35.546 0 1-1.6 1.048 34.601 44.357 35.546 0 1-1.624.978 34.601 44.357 35.546 0 1-1.648.906 34.601 44.357 35.546 0 1-1.667.833 34.601 44.357 35.546 0 1-1.683.757 34.601 44.357 35.546 0 1-1.696.681 34.601 44.357 35.546 0 1-1.705.602 34.601 44.357 35.546 0 1-1.71.524 34.601 44.357 35.546 0 1-1.714.443 34.601 44.357 35.546 0 1-.869.184 34.601 44.357 35.546 0 0 12.184 21.05 34.601 44.357 35.546 0 0 1.239.704 22.846 50.746 35.2 0 1 15.906-41.822 22.846 50.746 35.2 0 1 .49-.657z" stroke="#000" stroke-linecap="square" stroke-width="3" transform="matrix(3.65184 4.91035 -8.81632 3.43875 1289.865 -239.906)"/>
  <path d="M957.028 231.09a203.656 420.89 83.863 0 0 4.21-16.56 136.306 475.02 88.319 0 1-436.908 73.625l-.03.113A203.656 420.89 83.863 0 1 815.772 363.8a203.656 420.89 83.863 0 0 141.256-132.71m-775.4 131.789a203.656 420.89 83.863 0 0 4.787 3.638 203.656 420.89 83.863 0 0 10.17 6.884A203.656 420.89 83.863 0 0 207.44 380a203.656 420.89 83.863 0 0 11.547 6.303 203.656 420.89 83.863 0 0 12.188 5.99 203.656 420.89 83.863 0 0 12.83 5.657 203.656 420.89 83.863 0 0 13.43 5.321 203.656 420.89 83.863 0 0 14.007 4.977 203.656 420.89 83.863 0 0 14.547 4.62 203.656 420.89 83.863 0 0 15.083 4.253 203.656 420.89 83.863 0 0 15.56 3.87 203.656 420.89 83.863 0 0 16.016 3.49 203.656 420.89 83.863 0 0 16.452 3.097 203.656 420.89 83.863 0 0 16.843 2.704 203.656 420.89 83.863 0 0 17.192 2.303 203.656 420.89 83.863 0 0 17.525 1.893 203.656 420.89 83.863 0 0 17.817 1.476 203.656 420.89 83.863 0 0 18.052 1.074 203.656 420.89 83.863 0 0 18.29.658 203.656 420.89 83.863 0 0 18.451.234 203.656 420.89 83.863 0 0 18.605-.187 203.656 420.89 83.863 0 0 18.71-.596 203.656 420.89 83.863 0 0 18.771-1.019 203.656 420.89 83.863 0 0 18.806-1.43 203.656 420.89 83.863 0 0 18.789-1.837 203.656 420.89 83.863 0 0 18.755-2.248 203.656 420.89 83.863 0 0 18.668-2.656 203.656 420.89 83.863 0 0 18.544-3.053 203.656 420.89 83.863 0 0 18.377-3.43 203.656 420.89 83.863 0 0 18.194-3.828 203.656 420.89 83.863 0 0 17.96-4.205 203.656 420.89 83.863 0 0 17.68-4.565 203.656 420.89 83.863 0 0 17.377-4.928 203.656 420.89 83.863 0 0 17.055-5.283 203.656 420.89 83.863 0 0 16.668-5.621 203.656 420.89 83.863 0 0 16.258-5.942 203.656 420.89 83.863 0 0 15.818-6.259 203.656 420.89 83.863 0 0 15.36-6.568 203.656 420.89 83.863 0 0 14.846-6.848 203.656 420.89 83.863 0 0 7.261-3.618A203.656 420.89 83.863 0 0 524.3 288.27a203.656 420.89 83.863 0 0-342.668 74.615zm291.642 75.04a203.656 420.89 83.863 0 1-18.455-.238 203.656 420.89 83.863 0 1-18.286-.653 203.656 420.89 83.863 0 1-18.057-1.065 203.656 420.89 83.863 0 1-17.812-1.485 203.656 420.89 83.863 0 1-17.525-1.893 203.656 420.89 83.863 0 1-17.2-2.3 203.656 420.89 83.863 0 1-16.843-2.704 203.656 420.89 83.863 0 1-16.444-3.1 203.656 420.89 83.863 0 1-16.016-3.49 203.656 420.89 83.863 0 1-15.564-3.875 203.656 420.89 83.863 0 1-15.082-4.253 203.656 420.89 83.863 0 1-14.553-4.611 203.656 420.89 83.863 0 1-14.006-4.977 203.656 420.89 83.863 0 1-13.432-5.321 203.656 420.89 83.863 0 1-12.82-5.661 203.656 420.89 83.863 0 1-12.197-5.986 203.656 420.89 83.863 0 1-11.534-6.302 203.656 420.89 83.863 0 1-10.864-6.595 203.656 420.89 83.863 0 1-10.165-6.893 203.656 420.89 83.863 0 1-4.796-3.635A203.656 420.89 83.863 0 0 40.53 495.096a203.656 420.89 83.863 0 0-1.682 8.505 136.306 475.02 88.319 0 1 426.803-65.712 136.306 475.02 88.319 0 1 7.582.147z" fill="#00fd77"/>
  <path d="M53.858 60.061a34.601 44.357 35.546 0 0-2.355-1.453 22.846 50.746 35.2 0 1-15.279 43.228l.016.01a34.601 44.357 35.546 0 1 29.87-20.688 34.601 44.357 35.546 0 0-12.252-21.097zm-26.939 76.792a34.601 44.357 35.546 0 0 .869-.183 34.601 44.357 35.546 0 0 1.713-.444 34.601 44.357 35.546 0 0 1.71-.523 34.601 44.357 35.546 0 0 1.706-.603 34.601 44.357 35.546 0 0 1.696-.68 34.601 44.357 35.546 0 0 1.683-.758 34.601 44.357 35.546 0 0 1.667-.833 34.601 44.357 35.546 0 0 1.648-.906 34.601 44.357 35.546 0 0 1.625-.977 34.601 44.357 35.546 0 0 1.6-1.048 34.601 44.357 35.546 0 0 1.569-1.115 34.601 44.357 35.546 0 0 1.537-1.18 34.601 44.357 35.546 0 0 1.502-1.244 34.601 44.357 35.546 0 0 1.464-1.304 34.601 44.357 35.546 0 0 1.422-1.361 34.601 44.357 35.546 0 0 1.378-1.417 34.601 44.357 35.546 0 0 1.33-1.47 34.601 44.357 35.546 0 0 1.281-1.517 34.601 44.357 35.546 0 0 1.23-1.565 34.601 44.357 35.546 0 0 1.173-1.607 34.601 44.357 35.546 0 0 1.116-1.648 34.601 44.357 35.546 0 0 1.058-1.684 34.601 44.357 35.546 0 0 .995-1.717 34.601 44.357 35.546 0 0 .932-1.747 34.601 44.357 35.546 0 0 .867-1.772 34.601 44.357 35.546 0 0 .8-1.796 34.601 44.357 35.546 0 0 .73-1.815 34.601 44.357 35.546 0 0 .66-1.83 34.601 44.357 35.546 0 0 .59-1.84 34.601 44.357 35.546 0 0 .516-1.85 34.601 44.357 35.546 0 0 .442-1.854 34.601 44.357 35.546 0 0 .368-1.853 34.601 44.357 35.546 0 0 .292-1.85 34.601 44.357 35.546 0 0 .216-1.845 34.601 44.357 35.546 0 0 .139-1.833 34.601 44.357 35.546 0 0 .063-1.818 34.601 44.357 35.546 0 0-.014-1.8 34.601 44.357 35.546 0 0-.091-1.78 34.601 44.357 35.546 0 0-.167-1.753 34.601 44.357 35.546 0 0-.124-.875 34.601 44.357 35.546 0 0-29.87 20.688 34.601 44.357 35.546 0 0-9.32 35.007zm29.803-20.735a34.601 44.357 35.546 0 1-1.174 1.607 34.601 44.357 35.546 0 1-1.229 1.565 34.601 44.357 35.546 0 1-1.28 1.518 34.601 44.357 35.546 0 1-1.331 1.469 34.601 44.357 35.546 0 1-1.378 1.417 34.601 44.357 35.546 0 1-1.422 1.362 34.601 44.357 35.546 0 1-1.464 1.304 34.601 44.357 35.546 0 1-1.502 1.243 34.601 44.357 35.546 0 1-1.537 1.18 34.601 44.357 35.546 0 1-1.57 1.115 34.601 44.357 35.546 0 1-1.6 1.048 34.601 44.357 35.546 0 1-1.624.978 34.601 44.357 35.546 0 1-1.648.906 34.601 44.357 35.546 0 1-1.667.833 34.601 44.357 35.546 0 1-1.683.757 34.601 44.357 35.546 0 1-1.696.681 34.601 44.357 35.546 0 1-1.705.602 34.601 44.357 35.546 0 1-1.71.524 34.601 44.357 35.546 0 1-1.714.443 34.601 44.357 35.546 0 1-.869.184 34.601 44.357 35.546 0 0 12.184 21.05 34.601 44.357 35.546 0 0 1.239.704 22.846 50.746 35.2 0 1 15.906-41.822 22.846 50.746 35.2 0 1 .49-.657z" stroke="#000" stroke-linecap="square" stroke-width="3" transform="matrix(3.65184 4.91035 -8.81632 3.43875 1292.043 -141.7)"/>
  <path d="M959.206 329.297a203.656 420.89 83.863 0 0 4.21-16.56 136.306 475.02 88.319 0 1-436.908 73.625l-.03.113a203.656 420.89 83.863 0 1 291.472 75.53 203.656 420.89 83.863 0 0 141.256-132.708m-775.4 131.789a203.656 420.89 83.863 0 0 4.787 3.637 203.656 420.89 83.863 0 0 10.17 6.885 203.656 420.89 83.863 0 0 10.855 6.598 203.656 420.89 83.863 0 0 11.547 6.304 203.656 420.89 83.863 0 0 12.188 5.99 203.656 420.89 83.863 0 0 12.83 5.657 203.656 420.89 83.863 0 0 13.43 5.32 203.656 420.89 83.863 0 0 14.007 4.978 203.656 420.89 83.863 0 0 14.547 4.62 203.656 420.89 83.863 0 0 15.083 4.252 203.656 420.89 83.863 0 0 15.56 3.87 203.656 420.89 83.863 0 0 16.016 3.49 203.656 420.89 83.863 0 0 16.453 3.097 203.656 420.89 83.863 0 0 16.842 2.705 203.656 420.89 83.863 0 0 17.192 2.302 203.656 420.89 83.863 0 0 17.525 1.894 203.656 420.89 83.863 0 0 17.817 1.476 203.656 420.89 83.863 0 0 18.052 1.073 203.656 420.89 83.863 0 0 18.29.658 203.656 420.89 83.863 0 0 18.451.234 203.656 420.89 83.863 0 0 18.605-.187 203.656 420.89 83.863 0 0 18.71-.596 203.656 420.89 83.863 0 0 18.772-1.018 203.656 420.89 83.863 0 0 18.805-1.431 203.656 420.89 83.863 0 0 18.789-1.836 203.656 420.89 83.863 0 0 18.755-2.248 203.656 420.89 83.863 0 0 18.668-2.657 203.656 420.89 83.863 0 0 18.544-3.052 203.656 420.89 83.863 0 0 18.377-3.43 203.656 420.89 83.863 0 0 18.194-3.828 203.656 420.89 83.863 0 0 17.96-4.205 203.656 420.89 83.863 0 0 17.68-4.565 203.656 420.89 83.863 0 0 17.377-4.928 203.656 420.89 83.863 0 0 17.055-5.284 203.656 420.89 83.863 0 0 16.668-5.62 203.656 420.89 83.863 0 0 16.258-5.943 203.656 420.89 83.863 0 0 15.818-6.258 203.656 420.89 83.863 0 0 15.36-6.568 203.656 420.89 83.863 0 0 14.846-6.848 203.656 420.89 83.863 0 0 7.261-3.618 203.656 420.89 83.863 0 0-291.472-75.531A203.656 420.89 83.863 0 0 183.81 461.09zm291.642 75.04a203.656 420.89 83.863 0 1-18.455-.239 203.656 420.89 83.863 0 1-18.286-.653 203.656 420.89 83.863 0 1-18.057-1.065 203.656 420.89 83.863 0 1-17.812-1.484 203.656 420.89 83.863 0 1-17.525-1.894 203.656 420.89 83.863 0 1-17.2-2.299 203.656 420.89 83.863 0 1-16.843-2.704 203.656 420.89 83.863 0 1-16.444-3.101 203.656 420.89 83.863 0 1-16.016-3.49 203.656 420.89 83.863 0 1-15.564-3.875 203.656 420.89 83.863 0 1-15.082-4.253 203.656 420.89 83.863 0 1-14.553-4.61 203.656 420.89 83.863 0 1-14.006-4.978 203.656 420.89 83.863 0 1-13.432-5.32 203.656 420.89 83.863 0 1-12.82-5.662 203.656 420.89 83.863 0 1-12.197-5.986 203.656 420.89 83.863 0 1-11.534-6.302 203.656 420.89 83.863 0 1-10.864-6.595 203.656 420.89 83.863 0 1-10.165-6.893 203.656 420.89 83.863 0 1-4.796-3.634 203.656 420.89 83.863 0 0-141.09 132.213 203.656 420.89 83.863 0 0-1.681 8.505 136.306 475.02 88.319 0 1 426.802-65.711 136.306 475.02 88.319 0 1 7.582.147z" fill="#00b756"/>
  <path d="m925.529 900.806-231.97-3.828-109.681-266.71L699.37 390.814z" fill="#81a1c1"/>
  <path d="m584.963 635.453 106.523 259.76 50.339-1.403-51.33-285.82-67.122-61.776z" fill="#5e81ac"/>
  <path d="m764.344 552.853-69.105 80.746-71.886-84.5 72.883-164.962z" fill="#eceff4"/>
  <path d="M585.856 627.818 695.8 378.063l232.287 526.64-238.004-6.218m5.588-264.33 71.693-86.95m-148.165 3.476 73.963 82.873 49.888 268.16" fill="none" stroke="#000" stroke-linecap="round" stroke-linejoin="round" stroke-width="24.79"/>
  <path d="m537.652 990.353-35.293-260.367 195.69 162.452z" fill="#3b5b82"/>
  <path d="M682.553 888.32 515.488 757.529l-137.623-95.883 9.225-219.193 79.14-75.412" fill="#5e81ac"/>
  <path d="m391.625 459.004 74.2-86.316-70.728-158.88-9.877 246.876" fill="#d8dee9"/>
  <path d="m288.742 462.547 104.76-5.534-.07-230.962" fill="#eceff4"/>
  <path d="M544.95 988.086 515.46 756.72l-121.646-95.415-.382-204.39-107.227.424L199.5 643.832 93.243 907.027z" fill="#81a1c1"/>
  <g fill="none" stroke="#000" stroke-linecap="round" stroke-linejoin="round" stroke-width="24.79">
    <path d="M203.336 636.098 395.21 198.945 694.892 899.86 548.17 987.616l-251.996-44.85m222.417-185.762 27.482 225.004M395.76 218.872l-2.628 438.664 297.025 236.225"/>
    <path d="m203.336 636.098-110.073 270.9 202.911 35.762"/>
  </g>
</svg>
